<?xml version="1.0" encoding="UTF-8"?><svg id="Layer_2" xmlns="http://www.w3.org/2000/svg" viewBox="0 0 565.43 97.28"><defs><style>.cls-1{fill:#2f6586;}.cls-1,.cls-2,.cls-3,.cls-4,.cls-5,.cls-6{stroke-width:0px;}.cls-2{fill:#437857;}.cls-3{fill:#fdb515;}.cls-4{fill:#ffd07b;}.cls-5{fill:#003c5f;}.cls-6{fill:#004c23;}</style></defs><g id="todas_as_versões"><path class="cls-5" d="m505.4,12.16c-12.43,0-21.52,9.39-21.52,21.43s9.09,21.96,21.52,21.96,21.52-9.63,21.52-21.96-9.09-21.43-21.52-21.43Zm0,34c-6.16,0-11.1-5.4-11.1-12.57s4.95-12.04,11.1-12.04,11.1,5.17,11.1,12.04-4.94,12.57-11.1,12.57Z"/><path class="cls-5" d="m290.33,41.04l-6.02,7.72s7.15,6.79,17.48,6.79,15.5-6.11,15.5-13.16c0-12.66-20.07-12.46-20.07-17.79,0-2.69,3.06-3.51,5.27-3.51,5.29,0,9.58,2.57,9.58,2.57l4.3-8.08s-5.17-3.85-14.1-3.85-15.56,5.16-15.56,12.98c0,13.05,19.81,12.38,19.81,17.91,0,2.55-2.4,3.38-4.62,3.38-5.54,0-11.59-4.96-11.59-4.96Z"/><path class="cls-5" d="m321.25,39.4c0,9.45,6.2,16.15,16.88,16.15s16.76-6.7,16.76-16.15V12.86h-10.27v26.54c0,4.4-2.15,6.75-6.55,6.75s-6.56-2.35-6.56-6.75V12.86h-10.27v26.54Z"/><path class="cls-5" d="m379.55,12.86h-18.15v41.99h10.27v-11.9h7.88c8.16,0,13.85-6.65,13.85-15.11s-5.7-14.98-13.85-14.98Zm-2.11,21.28h-5.77v-12.47h5.95c3.4,0,5.34,2.83,5.34,6.17s-1.94,6.3-5.52,6.3Z"/><polygon class="cls-5" points="407.89 46.03 407.89 38.11 419.95 38.11 419.95 29.3 407.89 29.3 407.89 21.67 423.9 21.67 423.9 12.86 397.62 12.86 397.62 54.84 424.72 54.84 424.72 46.03 407.89 46.03"/><path class="cls-5" d="m463.95,54.84l-7.89-14.58c4.13-2.48,6.69-7.14,6.69-12.8,0-8.45-5.7-14.6-13.85-14.6h-18.15v41.99h10.27v-12.66h5.71l6.16,12.66h11.08Zm-22.94-33.17h5.95c3.4,0,5.34,2.45,5.34,5.79s-1.94,5.91-5.52,5.91h-5.77v-11.71Z"/><path class="cls-5" d="m565.43,54.84l-7.89-14.58c4.13-2.48,6.69-7.14,6.69-12.8,0-8.45-5.7-14.6-13.85-14.6h-18.15v41.99h10.27v-12.66h5.71l6.16,12.66h11.08Zm-22.94-33.17h5.95c3.4,0,5.34,2.45,5.34,5.79s-1.94,5.91-5.52,5.91h-5.77v-11.71Z"/><rect class="cls-5" x="468.43" y="12.86" width="10.27" height="41.98"/><path class="cls-5" d="m289.73,68.22h-5.42v-3.01h14.1v3.01h-5.22v16.22h-3.46v-16.22Z"/><path class="cls-5" d="m512.12,68.22h-5.26v-3.01h13.96v3.01h-5.24v16.22h-3.46v-16.22Z"/><path class="cls-5" d="m301.25,65.21h6.14c2.06,0,3,.16,3.83.54,1.9.87,3.11,2.71,3.11,5.25,0,2.3-1.21,4.45-3.22,5.26v.05s.27.28.64.95l3.91,7.18h-3.86l-3.78-7.18h-3.32v7.18h-3.46v-19.23Zm6.56,9.02c1.85,0,3-1.11,3-3.04s-.78-2.98-3.48-2.98h-2.63v6.01h3.11Z"/><path class="cls-5" d="m318.56,65.21h3.46v19.23h-3.46v-19.23Z"/><path class="cls-5" d="m326.62,65.21h6.81c3.43,0,5.87,1.79,5.87,4.96,0,1.79-.86,3.33-2.3,4.12v.05c2.09.62,3.08,2.57,3.08,4.52,0,3.85-3.05,5.58-6.57,5.58h-6.89v-19.23Zm6.81,7.85c1.5,0,2.36-1.08,2.36-2.46s-.8-2.38-2.41-2.38h-3.3v4.85h3.35Zm.35,8.37c1.77,0,2.76-1.16,2.76-2.79s-1.02-2.76-2.76-2.76h-3.7v5.55h3.7Z"/><path class="cls-5" d="m343.3,65.21h3.46v12.32c0,2.58,1.02,4.04,3.56,4.04s3.59-1.46,3.59-4.06v-12.3h3.46v12.32c0,4.31-2.44,7.23-7.02,7.23s-7.05-2.93-7.05-7.23v-12.32Z"/><path class="cls-5" d="m361.46,65.21h3.46l7.21,11.1c.72,1.11,1.58,2.98,1.58,2.98h.05s-.19-1.84-.19-2.98v-11.1h3.43v19.23h-3.43l-7.21-11.08c-.72-1.11-1.58-2.98-1.58-2.98h-.05s.19,1.84.19,2.98v11.08h-3.46v-19.23Z"/><path class="cls-5" d="m391.04,79.9h-6.97l-1.45,4.55h-3.56l6.7-19.23h3.62l6.7,19.23h-3.57l-1.47-4.55Zm-3.48-11.35s-.43,1.9-.8,2.98l-1.85,5.53h5.28l-1.82-5.53c-.35-1.08-.75-2.98-.75-2.98h-.05Z"/><path class="cls-5" d="m560.39,79.9h-6.97l-1.45,4.55h-3.56l6.7-19.23h3.62l6.7,19.23h-3.57l-1.47-4.55Zm-3.48-11.35s-.43,1.9-.8,2.98l-1.85,5.53h5.28l-1.82-5.53c-.35-1.08-.75-2.98-.75-2.98h-.05Z"/><path class="cls-5" d="m398.14,65.21h3.46v16.22h7.86v3.01h-11.32v-19.23Z"/><path class="cls-5" d="m419.98,65.21h5.88c5.87,0,9.7,3.52,9.7,9.59s-3.83,9.64-9.7,9.64h-5.88v-19.23Zm5.69,16.22c3.86,0,6.33-2.3,6.33-6.63s-2.52-6.58-6.33-6.58h-2.24v13.22h2.24Z"/><path class="cls-5" d="m438.52,65.21h11.39v3.01h-7.93v5.04h6.4v3h-6.4v5.17h8.36v3.01h-11.82v-19.23Z"/><path class="cls-5" d="m459.58,77.65h3.43v.89c0,2.27,1.23,3.03,2.52,3.03s2.44-.79,2.44-2.87v-10.48h-2.67v-3.01h6.13v13.54c0,4.2-3,6.01-5.95,6.01s-5.9-1.87-5.9-6.01v-1.11Z"/><path class="cls-5" d="m475.39,65.21h3.46v12.32c0,2.58,1.02,4.04,3.56,4.04s3.59-1.46,3.59-4.06v-12.3h3.46v12.32c0,4.31-2.44,7.23-7.02,7.23s-7.05-2.93-7.05-7.23v-12.32Z"/><path class="cls-5" d="m494.29,79.44s2.22,2.1,4.9,2.1c1.45,0,2.76-.76,2.76-2.33,0-3.44-8.98-2.85-8.98-8.75,0-3.19,2.73-5.58,6.38-5.58,3.28,0,5.22,1.75,5.22,1.75l-1.42,2.68s-1.67-1.21-3.82-1.21c-1.61,0-2.87.95-2.87,2.3,0,3.41,8.95,2.57,8.95,8.72,0,3.06-2.3,5.63-6.27,5.63-4.23,0-6.87-2.84-6.87-2.84l2.03-2.49Z"/><path class="cls-5" d="m523.98,65.21h3.46v19.23h-3.46v-19.23Z"/><path class="cls-5" d="m540.08,64.89c4.63,0,7.02,2.62,7.02,2.62l-1.66,2.6s-2.17-2.03-5.2-2.03c-4.02,0-6.13,3.03-6.13,6.61s2.2,6.88,6.16,6.88c3.3,0,5.52-2.44,5.52-2.44l1.82,2.52s-2.46,2.9-6.99,3.09l-.19.89c1.1.14,1.96.79,1.96,2.06,0,1.79-1.33,2.32-2.78,2.32-.91,0-1.56-.29-1.56-.29v-1.52s.37.09.96.09c.64,0,1.18-.28,1.18-.84,0-.52-.56-.73-1.29-.73-.3,0-.56.05-.56.05l.56-2.09c-5.14-.54-8.36-4.68-8.36-9.94,0-5.58,3.94-9.86,9.54-9.86Z"/><path class="cls-3" d="m36.05,52.63c0,18.06-8.38,34.16-21.45,44.65h-.87c-7.55,0-13.73-6.18-13.73-13.73V0h1.28c20.44,8.72,34.77,29,34.77,52.63h0Z"/><path class="cls-4" d="m22.63,0c10.97,11.79,17.68,27.59,17.68,44.97,0,21.16-9.95,39.99-25.44,52.08,12.92-10.49,21.18-26.48,21.18-44.42C36.05,29.01,21.71,8.73,1.27,0h21.36Z"/><path class="cls-5" d="m76.46,58.11c2.82-7.53,4.37-15.69,4.37-24.2,0-12.32-3.24-23.89-8.9-33.91h11.62c7.55,0,13.73,6.18,13.73,13.73v81.56l-20.82-37.18Z"/><path class="cls-6" d="m75.15,61.35c-6.98,16.09-19.93,28.99-36.04,35.93h56.17l-20.12-35.93Z"/><path class="cls-1" d="m76.46,58.11c2.82-7.53,4.37-15.68,4.37-24.2,0-12.32-3.24-23.89-8.9-33.91h-28l32.54,58.11Z"/><path class="cls-2" d="m40.8,0h-14.48c10.42,12.06,16.72,27.78,16.72,44.97,0,20.93-9.34,39.68-24.08,52.3h20.15c16.12-6.94,29.06-19.84,36.04-35.93L40.8,0Z"/><path class="cls-5" d="m258.42,12.85h-31.83v10.76h18.87v34.49c0,11.82-3.72,14.77-11.09,14.77h-15.74v11.57h16.26c14.01,0,23.52-6.48,23.52-25.93V12.85Z"/><polygon class="cls-5" points="197.21 23.61 218.64 23.61 218.64 12.85 162.95 12.85 162.95 23.61 184.26 23.61 184.26 84.44 197.21 84.44 197.21 23.61"/><path class="cls-5" d="m136.41,30.72c0-3.57,2.08-7.12,9.75-7.12,6.64,0,8.83.01,8.83.01v-10.76h-8.57c-14.88,0-23.18,7.52-23.18,19.12,0,10.14,7.48,16.3,19.28,20.48,8.95,3.24,12.54,6.38,12.54,11.71s-3.91,8.71-11.5,8.71h-20.38v11.58h18.19c18.22,0,26.86-9.83,26.86-21.22,0-10.14-5.9-16.31-18.22-20.9-9.48-3.66-13.58-6.17-13.58-11.6h0Z"/></g></svg>